<?xml version="1.0" standalone="no"?>
<!DOCTYPE svg PUBLIC "-//W3C//DTD SVG 20010904//EN"
 "http://www.w3.org/TR/2001/REC-SVG-20010904/DTD/svg10.dtd">
<svg version="1.0" xmlns="http://www.w3.org/2000/svg"
 width="375" height="80" viewBox="130 255 375 80"
 preserveAspectRatio="xMidYMid meet">
<g transform="translate(0.000000,600.000000) scale(0.100000,-0.100000)"
fill="#000000" stroke="none">
<path d="M2482 3377 c-6 -6 -46 -94 -90 -195 -80 -183 -128 -260 -200 -323
-21 -19 -38 -27 -44 -21 -10 10 23 105 66 190 14 28 26 56 26 62 0 5 -16 10
-35 10 -32 0 -37 -4 -64 -57 -40 -78 -61 -107 -117 -165 -48 -49 -82 -60 -76
-23 2 11 20 64 40 118 l36 97 41 0 c38 0 65 13 65 32 0 4 -18 8 -40 8 -22 0
-40 2 -40 5 0 3 13 32 30 65 29 57 29 60 11 70 -43 23 -57 13 -92 -65 -29 -65
-37 -75 -60 -75 -24 0 -49 -16 -49 -32 0 -4 13 -8 29 -8 l29 0 -15 -39 c-14
-35 -124 -182 -141 -188 -4 -2 -7 15 -7 37 -1 28 -9 50 -31 77 -50 62 -57 79
-38 98 9 9 26 15 38 13 16 -2 21 -9 19 -31 -2 -33 14 -35 51 -6 55 44 24 84
-59 77 -67 -6 -101 -29 -133 -89 -13 -24 -36 -60 -52 -80 -43 -55 -22 -71 24
-18 20 23 37 41 39 38 2 -2 17 -22 33 -44 17 -22 34 -48 37 -58 20 -54 -68
-84 -91 -32 -10 22 -15 24 -32 15 -49 -26 -42 -75 13 -85 71 -14 150 22 246
113 25 23 49 42 54 42 4 0 6 4 2 9 -3 5 1 15 8 23 18 18 42 61 39 71 -1 4 3 7
9 7 7 0 8 -7 4 -17 -4 -10 -8 -26 -10 -35 -2 -9 -9 -27 -16 -39 -18 -34 -20
-106 -3 -120 18 -15 9 -28 -15 -22 -10 3 -21 16 -24 29 -2 13 -1 21 3 19 4 -3
7 11 7 30 -2 71 -37 18 -37 -55 0 -34 4 -41 25 -46 14 -3 36 -3 50 0 29 7 145
121 145 142 0 8 4 14 8 14 10 0 37 51 33 63 -1 5 3 6 9 2 5 -3 10 -1 10 5 0 6
5 8 11 4 8 -5 8 -9 -1 -14 -6 -4 -12 -11 -12 -16 0 -5 -4 -18 -9 -29 -19 -49
-22 -61 -20 -75 1 -8 -5 -4 -12 9 -16 26 -19 23 -36 -31 -36 -110 92 -98 169
15 14 20 29 37 33 37 5 0 5 4 2 10 -3 5 5 21 19 34 14 13 26 28 26 33 0 20 26
33 38 21 6 -6 14 -10 16 -7 5 4 186 380 186 384 0 3 -59 25 -65 25 -2 0 -7 -6
-13 -13z m28 -46 c0 -6 -5 -13 -11 -16 -6 -4 -8 -13 -5 -21 3 -8 1 -14 -5 -14
-6 0 -7 -4 -4 -10 3 -5 1 -10 -4 -10 -6 0 -11 -6 -11 -13 0 -7 -7 -22 -15 -33
-14 -18 -14 -18 -15 4 0 13 4 20 10 17 6 -4 10 5 10 20 0 15 8 40 17 56 17 29
33 38 33 20z m-460 -148 c-11 -14 -17 -29 -14 -34 3 -5 1 -9 -4 -9 -12 0 -11
-33 1 -41 5 -4 5 -9 -2 -13 -6 -4 -11 -2 -11 5 0 7 -9 2 -20 -11 -11 -13 -20
-29 -20 -37 0 -7 -5 -13 -10 -13 -7 0 -7 6 0 19 13 25 13 34 0 26 -5 -3 -10
-1 -10 5 0 7 7 10 15 7 15 -6 31 8 18 16 -5 2 -3 2 4 1 6 -2 11 5 11 14 0 9 5
31 12 47 7 17 13 33 12 37 -1 4 6 4 15 1 12 -5 14 -3 8 7 -5 9 -4 11 4 6 8 -5
6 -15 -9 -33z m400 1 c0 -8 -19 -13 -24 -6 -3 5 1 9 9 9 8 0 15 -2 15 -3z
m-28 -49 c-6 -34 -12 -32 -12 6 0 16 4 28 9 25 4 -3 6 -17 3 -31z m-28 -49
c-3 -14 -10 -23 -15 -21 -4 3 -3 17 3 30 14 31 21 26 12 -9z m-204 -33 c-1
-26 -14 -51 -25 -47 -10 4 -10 11 -1 30 10 23 26 33 26 17z m182 -26 c-7 -8
-8 -18 -4 -22 4 -5 1 -5 -6 -1 -10 6 -10 11 -2 21 7 8 8 20 4 27 -5 10 -4 10
6 1 10 -9 10 -15 2 -26z m-683 -32 c-2 0 6 -11 18 -24 12 -13 19 -30 16 -40
-4 -9 -3 -13 2 -9 13 12 34 -18 38 -56 4 -34 -15 -67 -30 -52 -3 3 -2 6 3 6 5
0 10 19 11 42 1 29 -1 38 -7 28 -8 -13 -10 -13 -10 -1 0 8 -7 21 -15 30 -45
50 -52 60 -57 79 -7 26 13 35 26 13 6 -9 8 -16 5 -16z m441 -177 c0 -5 6 -6
13 -3 6 4 1 -3 -12 -14 -28 -25 -40 -20 -34 13 3 16 10 23 19 19 8 -3 14 -9
14 -15z m-525 -17 c3 -5 2 -12 -3 -15 -5 -3 -9 1 -9 9 0 17 3 19 12 6z"/>
<path d="M4191 3381 c-6 -4 -49 -96 -95 -206 -92 -212 -118 -258 -179 -311
-56 -47 -101 -61 -132 -40 -34 22 -31 40 8 54 42 16 122 75 142 105 61 93 -11
160 -115 107 -84 -43 -140 -126 -148 -217 -4 -48 -2 -55 26 -83 26 -26 38 -30
82 -30 58 0 111 23 154 69 16 17 33 28 37 25 5 -2 -1 -14 -11 -24 -24 -24 -26
-56 -4 -64 34 -13 52 -6 65 26 32 79 178 244 193 220 3 -5 -10 -44 -29 -88
-50 -114 -45 -164 16 -164 36 0 110 59 148 119 18 27 39 55 47 62 17 14 59 90
56 102 -1 4 2 7 8 7 14 0 12 -12 -5 -36 -8 -12 -11 -24 -8 -28 3 -3 1 -6 -6
-6 -7 0 -9 -4 -6 -10 3 -5 2 -10 -4 -10 -6 0 -7 -7 -4 -17 5 -12 3 -14 -7 -8
-9 6 -12 4 -8 -6 3 -8 0 -28 -7 -44 -12 -27 -13 -28 -14 -7 -1 34 -17 26 -29
-17 -15 -49 -15 -74 0 -89 30 -30 101 -3 158 60 l29 33 1 -36 c0 -38 24 -69
54 -69 34 0 75 31 121 92 29 37 45 53 40 38 -4 -14 -10 -46 -12 -72 -5 -44 -3
-48 20 -53 14 -4 35 -4 46 0 26 8 131 121 156 167 30 57 8 59 -38 3 -62 -74
-99 -107 -109 -97 -10 10 30 128 68 203 13 26 20 49 17 53 -14 13 -71 6 -77
-11 -6 -14 -9 -14 -27 5 -22 25 -35 27 -76 11 -55 -20 -104 -63 -147 -128 -63
-96 -136 -158 -158 -135 -7 6 29 114 61 187 21 44 24 47 59 47 35 0 62 14 62
31 0 5 -17 9 -39 11 l-39 3 29 59 c16 33 29 63 29 67 0 13 -61 22 -72 11 -6
-6 -24 -39 -39 -74 -24 -55 -31 -63 -58 -66 -31 -3 -57 -25 -47 -40 3 -5 17
-7 31 -4 14 2 25 0 25 -4 -1 -39 -156 -234 -186 -234 -22 0 -17 22 26 120 22
50 40 99 40 108 0 45 -58 56 -106 20 -33 -25 -71 -67 -123 -138 -19 -25 -31
-38 -28 -30 8 21 138 303 176 380 17 35 29 70 27 76 -5 13 -50 24 -65 15z m28
-53 c-6 -13 -19 -31 -28 -42 -9 -10 -15 -20 -13 -22 2 -3 -6 -24 -17 -47 -11
-23 -25 -54 -30 -69 -6 -16 -16 -28 -23 -28 -10 0 -10 2 -1 8 6 4 14 19 16 32
7 36 19 63 34 78 7 7 13 25 13 38 0 15 4 23 11 19 6 -4 9 -1 8 6 -3 22 12 49
27 49 12 0 13 -4 3 -22z m319 -137 c-15 -21 -34 -18 -20 3 4 6 7 14 8 19 1 4
2 10 3 14 0 4 6 2 12 -4 8 -8 7 -17 -3 -32z m-34 -77 c-3 -18 -1 -23 7 -18 8
4 9 3 5 -5 -4 -6 -12 -9 -17 -6 -5 4 -12 -1 -15 -9 -3 -9 -14 -16 -23 -16 -12
0 -13 2 -3 9 8 4 13 11 12 15 -3 13 24 65 31 60 4 -2 6 -16 3 -30z m-409 -31
c-4 -10 -8 -22 -9 -28 -7 -28 -27 -67 -32 -62 -3 3 0 16 7 29 7 12 14 25 14
28 3 17 17 50 22 50 3 0 2 -8 -2 -17z m756 -69 c-12 -21 -21 -42 -21 -45 0 -4
-7 -24 -16 -45 -14 -32 -17 -35 -26 -21 -9 17 24 102 61 154 25 33 25 1 2 -43z
m-591 46 c0 10 3 11 10 4 15 -15 -8 -64 -26 -57 -8 3 -11 9 -8 14 3 5 -2 9
-10 9 -9 0 -16 7 -16 16 0 8 4 13 9 9 5 -3 13 0 17 6 4 8 9 7 15 -2 7 -12 9
-11 9 1z m-378 -29 c-1 -13 -11 -35 -22 -50 -20 -29 -97 -87 -105 -80 -2 3 5
25 16 49 38 84 118 143 111 81z m822 20 c3 -5 -2 -15 -12 -22 -15 -12 -16 -12
-5 2 7 9 10 19 6 22 -3 4 -4 7 0 7 3 0 8 -4 11 -9z m106 -3 c-1 -29 -98 -172
-137 -201 -65 -49 -55 61 13 142 47 56 124 93 124 59z m-892 -38 c-7 -10 -14
-17 -17 -15 -4 4 18 35 25 35 2 0 -1 -9 -8 -20z m743 1 c-8 -5 -10 -14 -6 -21
5 -9 4 -11 -3 -6 -7 4 -12 1 -12 -8 0 -8 -8 -20 -17 -25 -13 -7 -14 -10 -4
-11 10 0 9 -5 -5 -17 -16 -16 -20 -31 -15 -65 1 -5 1 -10 1 -13 -1 -3 6 -13
15 -22 11 -10 13 -19 6 -26 -16 -16 -41 0 -41 27 0 14 -6 31 -14 39 -12 12
-10 18 17 47 18 19 31 34 29 35 -2 0 0 9 4 20 10 26 36 55 49 55 5 0 4 -4 -4
-9z m-913 -28 c-9 -10 -14 -26 -13 -36 2 -10 -1 -32 -5 -48 -8 -26 -7 -29 5
-19 11 9 15 9 15 1 0 -6 -9 -15 -21 -19 -21 -8 -21 -9 5 -26 15 -9 24 -21 21
-26 -3 -5 3 -13 12 -19 17 -10 17 -10 1 -11 -10 0 -18 5 -18 11 0 5 -4 8 -9 4
-5 -3 -16 7 -23 23 -22 43 -12 124 20 167 9 13 19 21 21 19 2 -2 -3 -12 -11
-21z m282 -111 c-8 -7 -15 -18 -15 -25 0 -7 -8 -23 -18 -37 l-18 -25 6 37 c4
21 2 39 -5 43 -5 3 -10 12 -10 18 0 7 4 6 10 -3 8 -13 10 -12 10 3 0 11 10 31
23 46 l22 28 5 -36 c4 -25 1 -40 -10 -49z m182 25 c-7 -8 -9 -16 -6 -19 2 -3
-2 -8 -11 -12 -14 -5 -14 -2 1 24 10 16 20 27 22 25 3 -3 0 -11 -6 -18z m596
-101 c-26 -13 -40 9 -25 41 l10 23 17 -27 c17 -27 16 -28 -2 -37z m-592 37
c19 -26 17 -39 -7 -40 -22 -2 -34 18 -25 42 7 20 16 19 32 -2z m177 0 c-3 -10
-3 -15 2 -11 9 9 35 -9 35 -24 0 -6 -7 -8 -15 -4 -8 3 -15 0 -16 -7 0 -7 -5 1
-9 17 -5 16 -7 33 -4 38 9 14 14 9 7 -9z"/>
<path d="M4577 2893 c-10 -9 -9 -23 1 -23 5 0 9 7 9 15 0 17 -1 18 -10 8z"/>
<path d="M1459 3326 c-69 -67 -184 -196 -224 -253 -30 -42 -31 -43 -91 -43
-54 0 -64 -3 -78 -25 -9 -13 -16 -26 -16 -29 0 -2 26 -2 57 1 l57 6 -21 -29
c-12 -16 -49 -65 -83 -109 -57 -74 -60 -80 -43 -93 42 -30 63 -13 137 110 l71
118 86 0 86 0 -9 -52 c-15 -83 -6 -158 23 -180 26 -22 66 -19 106 7 32 21 29
35 -7 35 -24 0 -31 5 -36 26 -18 70 33 320 95 472 27 69 28 73 11 82 -38 20
-65 10 -121 -44z m94 2 c-6 -7 -14 -28 -18 -46 -7 -32 -24 -39 -33 -12 -3 7 0
10 6 6 6 -4 8 2 5 15 -6 21 -7 21 -20 3 -14 -20 -83 -227 -83 -251 0 -10 -19
-13 -76 -13 l-75 0 30 38 c79 97 182 221 215 256 27 29 40 36 48 28 8 -8 8
-15 1 -24z m-42 -112 c-6 -7 -11 -18 -10 -22 3 -13 -10 -66 -22 -86 -5 -10 -9
-26 -9 -36 0 -10 -3 -21 -6 -25 -6 -6 -13 -64 -18 -167 -3 -48 0 -70 12 -83
19 -21 10 -31 -21 -23 -24 6 -24 8 -21 88 2 46 5 88 6 93 0 6 -2 21 -7 34 -6
21 -5 23 14 18 20 -5 31 8 11 15 -6 2 -4 14 5 31 8 15 10 25 5 22 -14 -8 -12
-2 5 31 8 16 15 37 15 46 0 9 4 27 9 40 5 13 12 32 16 42 4 14 9 16 17 8 8 -8
8 -15 -1 -26z m-264 -191 c0 -17 -24 -28 -32 -15 -4 7 13 23 31 30 0 0 1 -7 1
-15z m-50 -40 c-10 -11 -13 -10 -15 1 -2 8 -8 11 -14 8 -6 -4 -8 -2 -5 4 4 5
16 8 26 5 16 -4 17 -8 8 -18z m-103 -168 c-15 -18 -34 -36 -43 -41 -9 -5 -4 4
10 20 14 16 29 37 32 47 4 10 12 15 17 12 6 -4 0 -19 -16 -38z"/>
<path d="M3010 3348 c-47 -29 -140 -126 -140 -146 0 -4 5 -14 10 -22 8 -13 12
-11 27 10 77 111 183 175 183 112 0 -45 -69 -218 -166 -416 -30 -61 -54 -111
-54 -113 0 -5 80 -26 84 -22 2 2 23 48 46 102 98 225 286 466 346 443 12 -5
14 -14 9 -38 -6 -30 -81 -207 -166 -396 -36 -80 -34 -93 21 -95 30 -2 33 1 55
58 12 33 35 85 50 115 99 196 305 411 305 318 0 -12 -25 -77 -55 -146 -104
-233 -120 -318 -69 -369 21 -21 32 -25 65 -20 47 6 89 31 89 53 0 12 -4 13
-21 4 -11 -7 -31 -9 -44 -6 -51 13 -38 104 42 286 73 169 84 201 81 239 -4 47
-37 65 -91 50 -42 -11 -130 -89 -183 -160 -20 -28 -38 -48 -40 -46 -2 1 8 30
21 63 43 104 27 164 -42 164 -62 0 -185 -112 -239 -217 -10 -21 -24 -43 -31
-50 -6 -7 -15 -22 -18 -33 -3 -11 -11 -20 -17 -20 -6 0 -9 -3 -5 -6 3 -3 -2
-14 -11 -25 -12 -14 -18 -15 -24 -6 -4 6 -6 -3 -3 -20 2 -18 0 -35 -5 -38 -11
-7 -70 -134 -70 -151 0 -18 -20 -28 -31 -17 -10 10 34 101 55 115 6 4 7 10 3
14 -3 4 0 19 8 33 15 28 53 115 75 171 7 19 17 40 21 45 4 6 11 26 14 44 3 19
10 42 15 52 12 21 8 52 -8 71 -14 17 -4 32 12 19 6 -5 16 -11 21 -13 6 -1 9
-10 7 -18 -2 -8 -5 -28 -6 -45 -2 -16 -8 -29 -15 -27 -6 1 -11 -5 -11 -14 0
-8 5 -12 11 -8 8 4 7 0 -1 -15 -6 -12 -10 -32 -8 -44 5 -37 50 70 56 132 4 45
1 57 -14 68 -31 23 -86 16 -144 -19z m381 -7 c12 -2 28 -50 18 -56 -5 -4 -7
-10 -4 -15 7 -11 -15 -70 -26 -70 -5 0 -8 -3 -8 -7 1 -5 1 -17 0 -27 -1 -16
-4 -17 -13 -8 -10 10 -10 15 2 22 8 5 11 10 7 10 -4 0 -3 9 3 20 21 40 20 79
-3 95 -12 8 -18 15 -13 15 5 0 3 6 -3 13 -10 13 -5 14 40 8z m279 -26 c9 6 6
-77 -4 -93 -4 -7 -9 -20 -11 -29 -6 -32 -63 -132 -71 -125 -4 4 -4 -1 -1 -11
4 -10 1 -28 -5 -40 -7 -12 -11 -25 -10 -29 1 -5 -2 -8 -8 -8 -5 0 -7 -6 -4
-14 3 -7 -2 -20 -10 -28 -9 -9 -13 -25 -10 -39 4 -17 3 -20 -4 -10 -14 20 -9
-79 6 -106 16 -29 15 -32 -7 -30 -11 0 -19 4 -18 7 1 3 -4 14 -10 25 -6 11 -9
27 -8 35 2 8 5 29 8 46 3 17 10 41 16 53 7 12 9 27 5 34 -4 6 -3 9 1 4 10 -8
37 62 29 75 -3 4 -1 8 3 8 5 0 19 25 32 55 13 30 27 55 32 55 4 0 6 11 5 25
-2 13 1 23 7 22 19 -4 17 73 -2 92 -18 18 -18 19 3 29 11 5 23 5 24 1 2 -5 7
-7 12 -4z m-297 -179 c3 3 4 -2 2 -13 -2 -10 -4 -22 -4 -26 -1 -5 -7 -5 -13
-1 -9 5 -9 2 1 -9 7 -9 9 -17 4 -17 -4 0 -17 -17 -28 -37 -11 -21 -24 -41 -28
-44 -5 -3 -9 -12 -11 -20 -1 -8 -10 -29 -19 -46 -10 -18 -14 -33 -11 -33 4 0
0 -8 -9 -17 -8 -10 -19 -30 -22 -46 -8 -30 -20 -41 -34 -32 -11 6 25 95 45
111 7 6 11 14 8 17 -3 3 12 45 35 92 23 48 41 91 41 97 0 5 4 7 9 4 5 -4 7 4
3 16 -5 20 -3 21 10 11 8 -7 17 -10 21 -7z"/>
<path d="M1383 3328 c-11 -19 -13 -39 -1 -32 5 3 7 9 4 12 -3 3 -1 11 5 19 6
7 9 13 6 13 -3 0 -9 -6 -14 -12z"/>
<path d="M2216 3231 c-25 -28 -18 -75 12 -79 46 -7 81 55 50 86 -18 18 -42 15
-62 -7z m37 -36 c-6 -16 -16 -19 -26 -8 -9 8 13 34 24 28 4 -3 6 -12 2 -20z"/>
<path d="M3006 3208 c3 -5 10 -6 15 -3 13 9 11 12 -6 12 -8 0 -12 -4 -9 -9z"/>
<path d="M3535 3189 c-4 -6 -5 -12 -2 -15 2 -3 7 2 10 11 7 17 1 20 -8 4z"/>
<path d="M3246 3157 c3 -10 9 -15 12 -12 3 3 0 11 -7 18 -10 9 -11 8 -5 -6z"/>
<path d="M2295 3141 c-3 -5 -2 -12 3 -15 5 -3 9 1 9 9 0 17 -3 19 -12 6z"/>
<path d="M2489 3085 c-19 -14 -53 -46 -75 -72 -38 -44 -43 -46 -60 -33 -18 14
-18 14 -3 -5 15 -18 15 -22 -1 -47 -9 -16 -20 -25 -25 -20 -4 4 -5 2 -1 -5 3
-6 2 -14 -4 -18 -5 -3 -10 -15 -10 -26 0 -13 -4 -18 -12 -13 -8 5 -9 2 -5 -10
4 -10 3 -15 -3 -11 -9 6 -14 -8 -11 -28 1 -5 -3 -6 -9 -2 -6 4 -4 17 6 37 10
19 12 34 6 40 -6 6 -18 -7 -32 -37 -24 -50 -21 -60 22 -70 22 -6 29 -3 34 11
31 92 72 158 131 215 48 46 67 59 76 50 14 -14 -30 -61 -90 -97 -48 -28 -50
-35 -26 -96 31 -83 71 -105 131 -74 68 36 186 206 142 206 -5 0 -22 -20 -39
-43 -34 -50 -95 -107 -115 -107 -16 0 -38 26 -53 62 -10 21 -9 27 3 32 46 18
123 80 133 107 25 73 -39 105 -110 54z m83 -19 c3 -5 0 -22 -8 -38 -17 -32
-23 -36 -20 -10 2 9 -3 27 -11 39 -14 20 -13 22 9 20 13 0 26 -5 30 -11z
m-140 -199 c2 -12 8 -21 13 -21 6 1 20 -9 31 -22 12 -12 24 -22 26 -21 2 1 -3
-3 -10 -10 -8 -6 -19 -10 -25 -7 -10 4 -51 78 -52 94 0 3 -4 12 -10 20 -7 13
-6 13 7 2 9 -8 18 -23 20 -35z"/>
<path d="M4985 3031 c-3 -5 -2 -12 3 -15 5 -3 9 1 9 9 0 17 -3 19 -12 6z"/>
<path d="M2693 3005 c0 -8 4 -12 9 -9 5 3 6 10 3 15 -9 13 -12 11 -12 -6z"/>
<path d="M3406 2973 c-6 -14 -5 -15 5 -6 7 7 10 15 7 18 -3 3 -9 -2 -12 -12z"/>
<path d="M1839 2943 c-13 -16 -12 -17 4 -4 9 7 17 15 17 17 0 8 -8 3 -21 -13z"/>
<path d="M4294 2756 c1 -8 5 -18 8 -22 4 -3 5 1 4 10 -1 8 -5 18 -8 22 -4 3
-5 -1 -4 -10z"/>
</g>
</svg>
